<?xml version="1.0" encoding="iso-8859-1"?>
<!-- Uploaded to: SVG Repo, www.svgrepo.com, Generator: SVG Repo Mixer Tools -->
<svg height="800px" width="800px" version="1.1" id="Layer_1" xmlns="http://www.w3.org/2000/svg" xmlns:xlink="http://www.w3.org/1999/xlink" 
	 viewBox="0 0 512 512" xml:space="preserve">
<path style="fill:#AB91EA;" d="M0,256.006C0,397.402,114.606,512.004,255.996,512C397.394,512.004,512,397.402,512,256.006
	C512.009,114.61,397.394,0,255.996,0C114.606,0,0,114.614,0,256.006z"/>
<path style="fill:#947ADB;" d="M512,256.005c0.001-21.31-2.645-41.995-7.55-61.787c-0.316-0.425-95.174-95.445-95.722-95.858
	c-3.131-2.375-7.553-1.74-9.904,1.381l-52.898,70.081c-0.302-0.314-0.691-0.511-1.046-0.765
	c-0.457-0.642-40.162-40.345-40.802-40.801c-1.282-1.799-3.281-3.046-5.658-3.046h-190.89c-3.904,0-7.07,3.162-7.07,7.07v275.727
	c0,2.378,1.248,4.375,3.044,5.657c0.457,0.641,89.125,89.31,89.765,89.765c0.291,0.409,0.681,0.714,1.043,1.043
	c19.761,4.89,40.41,7.527,61.682,7.527C397.394,512.004,512,397.401,512,256.005z"/>
<g>
	<path style="fill:#F4F6F9;" d="M408.728,98.361c-3.131-2.375-7.553-1.74-9.904,1.381L227.63,326.546l-65.594-66.012
		c-2.762-2.769-7.232-2.789-10.001-0.028c-2.769,2.748-2.783,7.229-0.031,9.997l71.342,71.79c1.332,1.34,3.138,2.085,5.015,2.085
		c0.159,0,0.318-0.006,0.48-0.014c2.044-0.138,3.929-1.159,5.165-2.796l176.107-233.308
		C412.463,105.148,411.845,100.708,408.728,98.361z"/>
	<path style="fill:#F4F6F9;" d="M376.189,238.331c-3.904,0-7.07,3.163-7.07,7.07v155.538H114.602V139.351H298.42
		c3.904,0,7.07-3.163,7.07-7.07c0-3.908-3.166-7.07-7.07-7.07h-190.89c-3.904,0-7.07,3.163-7.07,7.07v275.727
		c0,3.908,3.166,7.07,7.07,7.07h268.657c3.904,0,7.07-3.163,7.07-7.07V245.401C383.259,241.492,380.093,238.331,376.189,238.331z"/>
</g>
</svg>